<svg width="143" height="42" viewBox="0 0 143 42" fill="none" xmlns="http://www.w3.org/2000/svg">
<path d="M0 14C0 6.26801 6.26801 0 14 0H129C136.732 0 143 6.26801 143 14V28C143 35.732 136.732 42 129 42H14C6.26802 42 0 35.732 0 28V14Z" fill="white"/>
<path d="M48.66 24L46.17 19.725H44.52V24H43.155V13.545H46.53C47.32 13.545 47.985 13.68 48.525 13.95C49.075 14.22 49.485 14.585 49.755 15.045C50.025 15.505 50.16 16.03 50.16 16.62C50.16 17.34 49.95 17.975 49.53 18.525C49.12 19.075 48.5 19.44 47.67 19.62L50.295 24H48.66ZM44.52 18.63H46.53C47.27 18.63 47.825 18.45 48.195 18.09C48.565 17.72 48.75 17.23 48.75 16.62C48.75 16 48.565 15.52 48.195 15.18C47.835 14.84 47.28 14.67 46.53 14.67H44.52V18.63ZM60.181 19.575C60.181 19.835 60.166 20.11 60.136 20.4H53.566C53.616 21.21 53.891 21.845 54.391 22.305C54.901 22.755 55.516 22.98 56.236 22.98C56.826 22.98 57.316 22.845 57.706 22.575C58.106 22.295 58.386 21.925 58.546 21.465H60.016C59.796 22.255 59.356 22.9 58.696 23.4C58.036 23.89 57.216 24.135 56.236 24.135C55.456 24.135 54.756 23.96 54.136 23.61C53.526 23.26 53.046 22.765 52.696 22.125C52.346 21.475 52.171 20.725 52.171 19.875C52.171 19.025 52.341 18.28 52.681 17.64C53.021 17 53.496 16.51 54.106 16.17C54.726 15.82 55.436 15.645 56.236 15.645C57.016 15.645 57.706 15.815 58.306 16.155C58.906 16.495 59.366 16.965 59.686 17.565C60.016 18.155 60.181 18.825 60.181 19.575ZM58.771 19.29C58.771 18.77 58.656 18.325 58.426 17.955C58.196 17.575 57.881 17.29 57.481 17.1C57.091 16.9 56.656 16.8 56.176 16.8C55.486 16.8 54.896 17.02 54.406 17.46C53.926 17.9 53.651 18.51 53.581 19.29H58.771ZM61.8727 19.86C61.8727 19.02 62.0427 18.285 62.3827 17.655C62.7227 17.015 63.1877 16.52 63.7777 16.17C64.3777 15.82 65.0427 15.645 65.7727 15.645C66.4927 15.645 67.1177 15.8 67.6477 16.11C68.1777 16.42 68.5727 16.81 68.8327 17.28V15.78H70.2127V24H68.8327V22.47C68.5627 22.95 68.1577 23.35 67.6177 23.67C67.0877 23.98 66.4677 24.135 65.7577 24.135C65.0277 24.135 64.3677 23.955 63.7777 23.595C63.1877 23.235 62.7227 22.73 62.3827 22.08C62.0427 21.43 61.8727 20.69 61.8727 19.86ZM68.8327 19.875C68.8327 19.255 68.7077 18.715 68.4577 18.255C68.2077 17.795 67.8677 17.445 67.4377 17.205C67.0177 16.955 66.5527 16.83 66.0427 16.83C65.5327 16.83 65.0677 16.95 64.6477 17.19C64.2277 17.43 63.8927 17.78 63.6427 18.24C63.3927 18.7 63.2677 19.24 63.2677 19.86C63.2677 20.49 63.3927 21.04 63.6427 21.51C63.8927 21.97 64.2277 22.325 64.6477 22.575C65.0677 22.815 65.5327 22.935 66.0427 22.935C66.5527 22.935 67.0177 22.815 67.4377 22.575C67.8677 22.325 68.2077 21.97 68.4577 21.51C68.7077 21.04 68.8327 20.495 68.8327 19.875ZM72.4095 19.86C72.4095 19.02 72.5795 18.285 72.9195 17.655C73.2595 17.015 73.7245 16.52 74.3145 16.17C74.9145 15.82 75.5845 15.645 76.3245 15.645C76.9645 15.645 77.5595 15.795 78.1095 16.095C78.6595 16.385 79.0795 16.77 79.3695 17.25V12.9H80.7495V24H79.3695V22.455C79.0995 22.945 78.6995 23.35 78.1695 23.67C77.6395 23.98 77.0195 24.135 76.3095 24.135C75.5795 24.135 74.9145 23.955 74.3145 23.595C73.7245 23.235 73.2595 22.73 72.9195 22.08C72.5795 21.43 72.4095 20.69 72.4095 19.86ZM79.3695 19.875C79.3695 19.255 79.2445 18.715 78.9945 18.255C78.7445 17.795 78.4045 17.445 77.9745 17.205C77.5545 16.955 77.0895 16.83 76.5795 16.83C76.0695 16.83 75.6045 16.95 75.1845 17.19C74.7645 17.43 74.4295 17.78 74.1795 18.24C73.9295 18.7 73.8045 19.24 73.8045 19.86C73.8045 20.49 73.9295 21.04 74.1795 21.51C74.4295 21.97 74.7645 22.325 75.1845 22.575C75.6045 22.815 76.0695 22.935 76.5795 22.935C77.0895 22.935 77.5545 22.815 77.9745 22.575C78.4045 22.325 78.7445 21.97 78.9945 21.51C79.2445 21.04 79.3695 20.495 79.3695 19.875ZM97.7402 15.63C98.3802 15.63 98.9502 15.765 99.4502 16.035C99.9502 16.295 100.345 16.69 100.635 17.22C100.925 17.75 101.07 18.395 101.07 19.155V24H99.7202V19.35C99.7202 18.53 99.5152 17.905 99.1052 17.475C98.7052 17.035 98.1602 16.815 97.4702 16.815C96.7602 16.815 96.1952 17.045 95.7752 17.505C95.3552 17.955 95.1452 18.61 95.1452 19.47V24H93.7952V19.35C93.7952 18.53 93.5902 17.905 93.1802 17.475C92.7802 17.035 92.2352 16.815 91.5452 16.815C90.8352 16.815 90.2702 17.045 89.8502 17.505C89.4302 17.955 89.2202 18.61 89.2202 19.47V24H87.8552V15.78H89.2202V16.965C89.4902 16.535 89.8502 16.205 90.3002 15.975C90.7602 15.745 91.2652 15.63 91.8152 15.63C92.5052 15.63 93.1152 15.785 93.6452 16.095C94.1752 16.405 94.5702 16.86 94.8302 17.46C95.0602 16.88 95.4402 16.43 95.9702 16.11C96.5002 15.79 97.0902 15.63 97.7402 15.63ZM107.294 24.135C106.524 24.135 105.824 23.96 105.194 23.61C104.574 23.26 104.084 22.765 103.724 22.125C103.374 21.475 103.199 20.725 103.199 19.875C103.199 19.035 103.379 18.295 103.739 17.655C104.109 17.005 104.609 16.51 105.239 16.17C105.869 15.82 106.574 15.645 107.354 15.645C108.134 15.645 108.839 15.82 109.469 16.17C110.099 16.51 110.594 17 110.954 17.64C111.324 18.28 111.509 19.025 111.509 19.875C111.509 20.725 111.319 21.475 110.939 22.125C110.569 22.765 110.064 23.26 109.424 23.61C108.784 23.96 108.074 24.135 107.294 24.135ZM107.294 22.935C107.784 22.935 108.244 22.82 108.674 22.59C109.104 22.36 109.449 22.015 109.709 21.555C109.979 21.095 110.114 20.535 110.114 19.875C110.114 19.215 109.984 18.655 109.724 18.195C109.464 17.735 109.124 17.395 108.704 17.175C108.284 16.945 107.829 16.83 107.339 16.83C106.839 16.83 106.379 16.945 105.959 17.175C105.549 17.395 105.219 17.735 104.969 18.195C104.719 18.655 104.594 19.215 104.594 19.875C104.594 20.545 104.714 21.11 104.954 21.57C105.204 22.03 105.534 22.375 105.944 22.605C106.354 22.825 106.804 22.935 107.294 22.935ZM115.069 17.115C115.309 16.645 115.649 16.28 116.089 16.02C116.539 15.76 117.084 15.63 117.724 15.63V17.04H117.364C115.834 17.04 115.069 17.87 115.069 19.53V24H113.704V15.78H115.069V17.115ZM127.2 19.575C127.2 19.835 127.185 20.11 127.155 20.4H120.585C120.635 21.21 120.91 21.845 121.41 22.305C121.92 22.755 122.535 22.98 123.255 22.98C123.845 22.98 124.335 22.845 124.725 22.575C125.125 22.295 125.405 21.925 125.565 21.465H127.035C126.815 22.255 126.375 22.9 125.715 23.4C125.055 23.89 124.235 24.135 123.255 24.135C122.475 24.135 121.775 23.96 121.155 23.61C120.545 23.26 120.065 22.765 119.715 22.125C119.365 21.475 119.19 20.725 119.19 19.875C119.19 19.025 119.36 18.28 119.7 17.64C120.04 17 120.515 16.51 121.125 16.17C121.745 15.82 122.455 15.645 123.255 15.645C124.035 15.645 124.725 15.815 125.325 16.155C125.925 16.495 126.385 16.965 126.705 17.565C127.035 18.155 127.2 18.825 127.2 19.575ZM125.79 19.29C125.79 18.77 125.675 18.325 125.445 17.955C125.215 17.575 124.9 17.29 124.5 17.1C124.11 16.9 123.675 16.8 123.195 16.8C122.505 16.8 121.915 17.02 121.425 17.46C120.945 17.9 120.67 18.51 120.6 19.29H125.79Z" fill="black"/>
<g clip-path="url(#clip0_2_63)">
<path d="M20 10.5139C25.7915 10.5139 30.4861 15.2085 30.4861 21C30.4861 26.7915 25.7915 31.4861 20 31.4861C14.2085 31.4861 9.51389 26.7915 9.51389 21C9.51389 15.2085 14.2085 10.5139 20 10.5139Z" stroke="black" stroke-width="12.5833" stroke-linecap="round" stroke-linejoin="round"/>
<path d="M22.4223 16.8055L28.4413 27.2287" stroke="black" stroke-width="12.5833" stroke-linecap="round" stroke-linejoin="round"/>
<path d="M17.5777 16.8055H29.6158" stroke="black" stroke-width="12.5833" stroke-linecap="round" stroke-linejoin="round"/>
<path d="M15.1554 21L21.1744 10.5768" stroke="black" stroke-width="12.5833" stroke-linecap="round" stroke-linejoin="round"/>
<path d="M17.5777 25.1944L11.5587 14.7712" stroke="black" stroke-width="12.5833" stroke-linecap="round" stroke-linejoin="round"/>
<path d="M22.4223 25.1945H10.3842" stroke="black" stroke-width="12.5833" stroke-linecap="round" stroke-linejoin="round"/>
<path d="M24.8446 21L18.8256 31.4232" stroke="black" stroke-width="12.5833" stroke-linecap="round" stroke-linejoin="round"/>
</g>
<defs>
<clipPath id="clip0_2_63">
<rect width="32" height="32" fill="white" transform="translate(4 5)"/>
</clipPath>
</defs>
</svg>

