<svg width="154" height="42" viewBox="0 0 154 42" fill="none" xmlns="http://www.w3.org/2000/svg">
<path d="M0 14C0 6.26801 6.26801 0 14 0H140C147.732 0 154 6.26801 154 14V28C154 35.732 147.732 42 140 42H14C6.26801 42 0 35.732 0 28V14Z" fill="white"/>
<path d="M51.9019 17.08C51.5925 16.4293 51.1445 15.928 50.5579 15.576C49.9712 15.2133 49.2885 15.032 48.5099 15.032C47.7312 15.032 47.0272 15.2133 46.3979 15.576C45.7792 15.928 45.2885 16.44 44.9259 17.112C44.5739 17.7733 44.3979 18.5413 44.3979 19.416C44.3979 20.2907 44.5739 21.0587 44.9259 21.72C45.2885 22.3813 45.7792 22.8933 46.3979 23.256C47.0272 23.608 47.7312 23.784 48.5099 23.784C49.5979 23.784 50.4939 23.4587 51.1979 22.808C51.9019 22.1573 52.3125 21.2773 52.4299 20.168H47.9819V18.984H53.9819V20.104C53.8965 21.0213 53.6085 21.864 53.1179 22.632C52.6272 23.3893 51.9819 23.992 51.1819 24.44C50.3819 24.8773 49.4912 25.096 48.5099 25.096C47.4752 25.096 46.5312 24.856 45.6779 24.376C44.8245 23.8853 44.1472 23.208 43.6459 22.344C43.1552 21.48 42.9099 20.504 42.9099 19.416C42.9099 18.328 43.1552 17.352 43.6459 16.488C44.1472 15.6133 44.8245 14.936 45.6779 14.456C46.5312 13.9653 47.4752 13.72 48.5099 13.72C49.6939 13.72 50.7392 14.0133 51.6459 14.6C52.5632 15.1867 53.2299 16.0133 53.6459 17.08H51.9019ZM64.307 20.28C64.307 20.5573 64.291 20.8507 64.259 21.16H57.251C57.3043 22.024 57.5977 22.7013 58.131 23.192C58.675 23.672 59.331 23.912 60.099 23.912C60.7283 23.912 61.251 23.768 61.667 23.48C62.0937 23.1813 62.3923 22.7867 62.563 22.296H64.131C63.8963 23.1387 63.427 23.8267 62.723 24.36C62.019 24.8827 61.1443 25.144 60.099 25.144C59.267 25.144 58.5203 24.9573 57.859 24.584C57.2083 24.2107 56.6963 23.6827 56.323 23C55.9497 22.3067 55.763 21.5067 55.763 20.6C55.763 19.6933 55.9443 18.8987 56.307 18.216C56.6697 17.5333 57.1763 17.0107 57.827 16.648C58.4883 16.2747 59.2457 16.088 60.099 16.088C60.931 16.088 61.667 16.2693 62.307 16.632C62.947 16.9947 63.4377 17.496 63.779 18.136C64.131 18.7653 64.307 19.48 64.307 20.28ZM62.803 19.976C62.803 19.4213 62.6803 18.9467 62.435 18.552C62.1897 18.1467 61.8537 17.8427 61.427 17.64C61.011 17.4267 60.547 17.32 60.035 17.32C59.299 17.32 58.6697 17.5547 58.147 18.024C57.635 18.4933 57.3417 19.144 57.267 19.976H62.803ZM68.4049 17.432V22.6C68.4049 23.0267 68.4955 23.3307 68.6769 23.512C68.8582 23.6827 69.1729 23.768 69.6209 23.768H70.6929V25H69.3809C68.5702 25 67.9622 24.8133 67.5569 24.44C67.1515 24.0667 66.9489 23.4533 66.9489 22.6V17.432H65.8129V16.232H66.9489V14.024H68.4049V16.232H70.6929V17.432H68.4049ZM78.2746 14.808C77.9973 14.808 77.7626 14.712 77.5706 14.52C77.3786 14.328 77.2826 14.0933 77.2826 13.816C77.2826 13.5387 77.3786 13.304 77.5706 13.112C77.7626 12.92 77.9973 12.824 78.2746 12.824C78.5413 12.824 78.7653 12.92 78.9466 13.112C79.1386 13.304 79.2346 13.5387 79.2346 13.816C79.2346 14.0933 79.1386 14.328 78.9466 14.52C78.7653 14.712 78.5413 14.808 78.2746 14.808ZM78.9786 16.232V25H77.5226V16.232H78.9786ZM86.1321 16.072C87.1988 16.072 88.0628 16.3973 88.7241 17.048C89.3855 17.688 89.7161 18.616 89.7161 19.832V25H88.2761V20.04C88.2761 19.1653 88.0575 18.4987 87.6201 18.04C87.1828 17.5707 86.5855 17.336 85.8281 17.336C85.0601 17.336 84.4468 17.576 83.9881 18.056C83.5401 18.536 83.3161 19.2347 83.3161 20.152V25H81.8601V16.232H83.3161V17.48C83.6041 17.032 83.9935 16.6853 84.4841 16.44C84.9855 16.1947 85.5348 16.072 86.1321 16.072ZM98.9361 17.432V22.6C98.9361 23.0267 99.0268 23.3307 99.2081 23.512C99.3895 23.6827 99.7041 23.768 100.152 23.768H101.224V25H99.9121C99.1015 25 98.4935 24.8133 98.0881 24.44C97.6828 24.0667 97.4801 23.4533 97.4801 22.6V17.432H96.3441V16.232H97.4801V14.024H98.9361V16.232H101.224V17.432H98.9361ZM107.212 25.144C106.391 25.144 105.644 24.9573 104.972 24.584C104.311 24.2107 103.788 23.6827 103.404 23C103.031 22.3067 102.844 21.5067 102.844 20.6C102.844 19.704 103.036 18.9147 103.42 18.232C103.815 17.5387 104.348 17.0107 105.02 16.648C105.692 16.2747 106.444 16.088 107.276 16.088C108.108 16.088 108.86 16.2747 109.532 16.648C110.204 17.0107 110.732 17.5333 111.116 18.216C111.511 18.8987 111.708 19.6933 111.708 20.6C111.708 21.5067 111.506 22.3067 111.1 23C110.706 23.6827 110.167 24.2107 109.484 24.584C108.802 24.9573 108.044 25.144 107.212 25.144ZM107.212 23.864C107.735 23.864 108.226 23.7413 108.684 23.496C109.143 23.2507 109.511 22.8827 109.788 22.392C110.076 21.9013 110.22 21.304 110.22 20.6C110.22 19.896 110.082 19.2987 109.804 18.808C109.527 18.3173 109.164 17.9547 108.716 17.72C108.268 17.4747 107.783 17.352 107.26 17.352C106.727 17.352 106.236 17.4747 105.788 17.72C105.351 17.9547 104.999 18.3173 104.732 18.808C104.466 19.2987 104.332 19.896 104.332 20.6C104.332 21.3147 104.46 21.9173 104.716 22.408C104.983 22.8987 105.335 23.2667 105.772 23.512C106.21 23.7467 106.69 23.864 107.212 23.864ZM121.799 16.232V25H120.343V23.704C120.065 24.152 119.676 24.504 119.175 24.76C118.684 25.0053 118.14 25.128 117.543 25.128C116.86 25.128 116.247 24.9893 115.703 24.712C115.159 24.424 114.727 23.9973 114.407 23.432C114.097 22.8667 113.943 22.1787 113.943 21.368V16.232H115.383V21.176C115.383 22.04 115.601 22.7067 116.039 23.176C116.476 23.6347 117.073 23.864 117.831 23.864C118.609 23.864 119.223 23.624 119.671 23.144C120.119 22.664 120.343 21.9653 120.343 21.048V16.232H121.799ZM124.113 20.6C124.113 19.6933 124.294 18.904 124.657 18.232C125.02 17.5493 125.521 17.0213 126.161 16.648C126.812 16.2747 127.553 16.088 128.385 16.088C129.462 16.088 130.348 16.3493 131.041 16.872C131.745 17.3947 132.209 18.12 132.433 19.048H130.865C130.716 18.5147 130.422 18.0933 129.985 17.784C129.558 17.4747 129.025 17.32 128.385 17.32C127.553 17.32 126.881 17.608 126.369 18.184C125.857 18.7493 125.601 19.5547 125.601 20.6C125.601 21.656 125.857 22.472 126.369 23.048C126.881 23.624 127.553 23.912 128.385 23.912C129.025 23.912 129.558 23.7627 129.985 23.464C130.412 23.1653 130.705 22.7387 130.865 22.184H132.433C132.198 23.08 131.729 23.8 131.025 24.344C130.321 24.8773 129.441 25.144 128.385 25.144C127.553 25.144 126.812 24.9573 126.161 24.584C125.521 24.2107 125.02 23.6827 124.657 23C124.294 22.3173 124.113 21.5173 124.113 20.6ZM139.128 16.072C139.789 16.072 140.386 16.216 140.92 16.504C141.453 16.7813 141.869 17.2027 142.168 17.768C142.477 18.3333 142.632 19.0213 142.632 19.832V25H141.192V20.04C141.192 19.1653 140.973 18.4987 140.536 18.04C140.098 17.5707 139.501 17.336 138.744 17.336C137.976 17.336 137.362 17.576 136.904 18.056C136.456 18.536 136.232 19.2347 136.232 20.152V25H134.776V13.16H136.232V17.48C136.52 17.032 136.914 16.6853 137.416 16.44C137.928 16.1947 138.498 16.072 139.128 16.072Z" fill="black"/>
<g clip-path="url(#clip0_2_370)">
<path d="M20 10.5137C25.7914 10.5137 30.4861 15.2083 30.4861 20.9998C30.4861 26.7913 25.7914 31.4859 20 31.4859C14.2085 31.4859 9.51385 26.7913 9.51385 20.9998C9.51385 15.2083 14.2085 10.5137 20 10.5137Z" stroke="black" stroke-width="12.5833" stroke-linecap="round" stroke-linejoin="round"/>
<path d="M22.4222 16.8052L28.4413 27.2284" stroke="black" stroke-width="12.5833" stroke-linecap="round" stroke-linejoin="round"/>
<path d="M17.5777 16.8052H29.6158" stroke="black" stroke-width="12.5833" stroke-linecap="round" stroke-linejoin="round"/>
<path d="M15.1554 20.9999L21.1744 10.5767" stroke="black" stroke-width="12.5833" stroke-linecap="round" stroke-linejoin="round"/>
<path d="M17.5777 25.1942L11.5587 14.771" stroke="black" stroke-width="12.5833" stroke-linecap="round" stroke-linejoin="round"/>
<path d="M22.4223 25.1943H10.3842" stroke="black" stroke-width="12.5833" stroke-linecap="round" stroke-linejoin="round"/>
<path d="M24.8445 21L18.8255 31.4232" stroke="black" stroke-width="12.5833" stroke-linecap="round" stroke-linejoin="round"/>
</g>
<defs>
<clipPath id="clip0_2_370">
<rect width="32" height="32" fill="white" transform="translate(4 5)"/>
</clipPath>
</defs>
</svg>
