<svg width="113" height="24" viewBox="0 0 113 24" fill="none" xmlns="http://www.w3.org/2000/svg">
<path d="M25 4.55654C24.1169 4.94873 23.168 5.21203 22.1724 5.3327C23.1899 4.72384 23.9688 3.75844 24.3363 2.60928C23.3846 3.17426 22.3288 3.58291 21.2098 3.80506C20.313 2.84789 19.0322 2.25 17.6171 2.25C14.8965 2.25 12.6915 4.45232 12.6915 7.173C12.6915 7.5597 12.7353 7.93544 12.8176 8.29473C8.72575 8.08903 5.09736 6.1308 2.67021 3.14958C2.24786 3.87637 2.00377 4.72384 2.00377 5.62616C2.00377 7.33481 2.87316 8.84051 4.19232 9.72363C3.38601 9.69895 2.62633 9.47679 1.96263 9.10654V9.16962C1.96263 11.5557 3.66027 13.5441 5.9119 13.9966C5.50051 14.1091 5.06445 14.1694 4.61467 14.1694C4.29654 14.1694 3.98937 14.1392 3.69044 14.0816C4.31574 16.0371 6.13404 17.4605 8.28694 17.5017C6.60302 18.8209 4.48303 19.608 2.17381 19.608C1.77614 19.608 1.3867 19.5861 1 19.5395C3.18032 20.9354 5.76654 21.75 8.54748 21.75C17.6034 21.75 22.5564 14.2489 22.5564 7.74346C22.5564 7.52954 22.5509 7.31835 22.5427 7.10717C23.5053 6.41055 24.3418 5.54388 25 4.55654Z" fill="#C0C0C0"/>
<g clip-path="url(#clip0_2_410)">
<path d="M57 5.76825C53.5638 5.76825 50.7683 8.5638 50.7683 12C50.7683 15.4362 53.5638 18.2293 57 18.2293C60.4362 18.2293 63.2293 15.4338 63.2293 12C63.2317 8.5638 60.4362 5.76825 57 5.76825ZM57 15.8536C54.8742 15.8536 53.1464 14.1258 53.1464 12C53.1464 9.87422 54.8742 8.14641 57 8.14641C59.1258 8.14641 60.8536 9.87422 60.8536 12C60.8536 14.1258 59.1258 15.8536 57 15.8536ZM62.0936 0H51.9064C48.0989 0 45 3.09889 45 6.90637V17.0936C45 20.9011 48.0989 24 51.9064 24H62.0936C65.9011 24 69 20.9011 69 17.0936V6.90637C69 3.09889 65.9035 0 62.0936 0ZM66.6243 17.0936C66.6243 19.5907 64.5907 21.6218 62.0936 21.6218H51.9064C49.4093 21.6218 47.3782 19.5907 47.3782 17.0936V6.90637C47.3782 4.4093 49.4093 2.37816 51.9064 2.37816H62.0936C64.5907 2.37816 66.6218 4.4093 66.6218 6.90637V17.0936H66.6243ZM63.3167 3.96764C62.4188 3.96764 61.6859 4.69808 61.6859 5.59838C61.6859 6.49626 62.4164 7.22912 63.3167 7.22912C64.2146 7.22912 64.9474 6.49869 64.9474 5.59838C64.9474 4.69808 64.2146 3.96764 63.3167 3.96764Z" fill="#C0C0C0"/>
</g>
<path d="M106.625 7.7714H102.79V5.2806C102.79 4.34518 103.418 4.12573 103.858 4.12573H106.559V0.0137159L102.834 0C98.7035 0 97.7656 3.06686 97.7656 5.03098V7.7714H95.375V12.0069H97.7656V24H102.793V12.0096H106.185L106.625 7.7714Z" fill="#C0C0C0"/>
<defs>
<clipPath id="clip0_2_410">
<rect width="24" height="24" fill="white" transform="translate(45)"/>
</clipPath>
</defs>
</svg>
